# xmcd
#
# Track frame offsets: 
#        183
#        18298
#        38390
#        58770
#        76970
#        90760
#        107655
#        122680
#        134463
#        149003
#
# Disc length: 2230 seconds
#
# Revision: 7
# Processed by: cddbd v1.5.2PL0 Copyright (c) Steve Scherf et al.
# Submitted via: ExactAudioCopy v1.1
#
DISCID=7808b40a
DTITLE=Crash Test Dummies - The Ghosts That Haunt Me
DYEAR=1991
DGENRE=Alternative
TTITLE0=Winter Song
TTITLE1=Comin' Back Soon (The Bereft Man's Song)
TTITLE2=Superman's Song
TTITLE3=The Country Life
TTITLE4=Here on Earth (I'll Have My Cake)
TTITLE5=The Ghosts That Haunt Me
TTITLE6=Thick-Necked Man
TTITLE7=Androgynous
TTITLE8=The Voyage
TTITLE9=At My Funeral
EXTD=
EXTT0=
EXTT1=
EXTT2=
EXTT3=
EXTT4=
EXTT5=
EXTT6=
EXTT7=
EXTT8=
EXTT9=
PLAYORDER=
